Coordinates
version=1
nRows=10
nColumns=40
inDegrees=yes

Units are S.I. units (second, meters, Newtons, ...)
Angles are in degrees.

endheader
time	pelvis_tilt	pelvis_list	pelvis_rotation	pelvis_tx	pelvis_ty	pelvis_tz	hip_flexion_r	hip_adduction_r	hip_rotation_r	knee_angle_r	knee_angle_r_beta	ankle_angle_r	subtalar_angle_r	mtp_angle_r	hip_flexion_l	hip_adduction_l	hip_rotation_l	knee_angle_l	knee_angle_l_beta	ankle_angle_l	subtalar_angle_l	mtp_angle_l	lumbar_extension	lumbar_bending	lumbar_rotation	arm_flex_r	arm_add_r	arm_rot_r	elbow_flex_r	pro_sup_r	wrist_flex_r	wrist_dev_r	arm_flex_l	arm_add_l	arm_rot_l	elbow_flex_l	pro_sup_l	wrist_flex_l	wrist_dev_l
     20.59664286	     -8.26887223	     -6.80811910	      3.22643332	      1.01935648	      0.91443626	      0.46919007	      1.11178118	      4.39413870	    -17.18524536	      7.23722745	      7.23722745	     16.05104325	      7.35904862	     -1.82748855	     39.63185891	     -8.68503163	      5.59320963	     26.61171016	     26.61171016	      8.11742079	    -11.69677580	     13.01672108	    -11.51336857	      5.04777872	      5.60006912	     58.49983949	    -12.15968664	      4.07625168	    115.59774115	     43.92383356	      0.00000000	      0.00000000	    -15.52406024	     -5.74298528	      1.23466986	     31.18860776	     45.51259939	      0.00000000	      0.00000000
     20.60828571	     -8.40587615	     -7.01865954	      2.95708163	      1.02072957	      0.91219825	      0.46682822	      0.62116710	      4.44580538	    -16.93943775	      7.33085077	      7.33085077	     16.61721005	      7.46144037	     -2.00484781	     38.95213333	     -8.90774654	      5.18793309	     26.52933279	     26.52933279	      7.87311014	    -11.70627164	     13.08493056	    -10.87474760	      5.28193992	      5.69897125	     58.72885455	    -12.07507192	      4.12877604	    115.86780394	     43.91624521	      0.00000000	      0.00000000	    -16.05362243	     -5.65629081	      1.25845708	     31.04613776	     45.50115267	      0.00000000	      0.00000000
     20.61992857	     -8.33324929	     -7.00170670	      2.59686234	      1.02210495	      0.91064830	      0.46454143	      0.17356003	      4.15693585	    -16.60337893	      7.97146494	      7.97146494	     17.29631602	      7.48729933	     -1.83547232	     37.88824060	     -9.15412791	      4.13170305	     26.24066224	     26.24066224	      7.37471706	    -10.92172427	     11.85824969	    -10.74717397	      5.17506931	      5.24281098	     59.17962249	    -11.26005320	      5.06032506	    117.66331042	     43.84703612	      0.00000000	      0.00000000	    -16.85499233	     -5.47410601	      1.48374242	     31.13512360	     45.45887359	      0.00000000	      0.00000000
     20.63157143	     -8.29110831	     -7.08498495	      2.35000349	      1.02339328	      0.90910351	      0.46197635	     -0.17891278	      3.95550488	    -16.22235609	      8.72944297	      8.72944297	     18.26277264	      7.35398867	     -0.72257342	     37.03959008	     -9.35045830	      3.45460189	     26.10874915	     26.10874915	      5.79594629	    -10.85073774	      7.81931252	    -10.49382962	      5.22863388	      5.26844938	     59.04797968	    -11.50698154	      5.76348433	    118.96599876	     43.84153835	      0.00000000	      0.00000000	    -17.37776555	     -5.56417063	      2.13821503	     31.71179566	     45.37158861	      0.00000000	      0.00000000
     20.64321429	     -8.25560293	     -6.95131978	      2.18884040	      1.02435471	      0.90806622	      0.45909293	     -0.39170550	      3.46790669	    -15.96309630	      9.66502063	      9.66502063	     18.76848651	      7.03896501	     -0.86538531	     36.38494099	     -9.21921978	      2.97659379	     26.35349724	     26.35349724	      5.58516523	    -10.70822248	      7.22318243	    -10.30212439	      5.05218303	      4.85453550	     58.79640369	    -11.00958566	      5.91094071	    119.76179940	     43.82584099	      0.00000000	      0.00000000	    -17.52304655	     -5.47172806	      2.38794324	     31.40189789	     45.33990065	      0.00000000	      0.00000000
     20.65485714	     -8.19427681	     -6.81915795	      2.09112132	      1.02509058	      0.90741023	      0.45603048	     -0.48569723	      2.94396414	    -15.66601584	     10.82537579	     10.82537579	     19.17396533	      6.57132076	     -1.03040347	     35.89457437	     -9.05559493	      2.58016149	     26.86826865	     26.86826865	      5.60345337	    -10.52240536	      6.52226177	    -10.19092662	      4.89186887	      4.50734349	     58.20685927	    -10.82351798	      6.12151844	    120.58393011	     43.80273456	      0.00000000	      0.00000000	    -17.40224582	     -5.45465000	      2.58705148	     31.12765330	     45.31831221	      0.00000000	      0.00000000
     20.66650000	     -8.09880839	     -6.65569766	      2.03392668	      1.02567163	      0.90720011	      0.45277521	     -0.44927606	      2.34447676	    -15.36124523	     12.27178910	     12.27178910	     19.48259112	      5.87352902	     -1.22050250	     35.46609908	     -8.82967128	      2.24412234	     27.51203611	     27.51203611	      5.76294693	    -10.43281841	      5.67362750	    -10.15025208	      4.71029184	      4.26969878	     57.30699852	    -10.91773594	      6.27833281	    121.54642709	     43.78004242	      0.00000000	      0.00000000	    -16.99605104	     -5.48539302	      2.86214983	     30.69362350	     45.29219682	      0.00000000	      0.00000000
     20.67814286	     -7.94599164	     -6.48776224	      1.99877369	      1.02610776	      0.90752028	      0.44933613	     -0.34615169	      1.70703044	    -15.05325030	     13.91159954	     13.91159954	     19.59319793	      5.11298816	     -1.52159025	     35.00099378	     -8.55388882	      2.03014781	     28.17259198	     28.17259198	      6.09655169	    -10.47826136	      4.98279666	    -10.21471900	      4.55809256	      4.11911977	     56.10300551	    -11.18811820	      6.36122557	    122.42847290	     43.76287991	      0.00000000	      0.00000000	    -16.32309808	     -5.56086043	      3.18394178	     30.15213291	     45.26452726	      0.00000000	      0.00000000
     20.68978571	     -7.77842421	     -6.29340143	      1.96691872	      1.02639155	      0.90825022	      0.44578292	     -0.09139231	      0.99208026	    -14.79344058	     15.82495141	     15.82495141	     19.52379651	      4.32790364	     -1.97134996	     34.49374262	     -8.22164591	      1.87120016	     28.77675843	     28.77675843	      6.63017093	    -10.54586755	      4.54161938	    -10.31345627	      4.39794067	      3.92261912	     54.62975143	    -11.40200398	      6.49126447	    122.97592282	     43.74705559	      0.00000000	      0.00000000	    -15.57867259	     -5.64309988	      3.40669394	     29.78545509	     45.24969688	      0.00000000	      0.00000000
     20.70142857	     -7.64729593	     -6.11858934	      1.89139184	      1.02653413	      0.90926606	      0.44223229	      0.41739305	      0.25976590	    -14.44743036	     18.08586279	     18.08586279	     19.20289480	      3.37512324	     -2.62178033	     33.97228511	     -7.89997747	      1.77764675	     29.27986869	     29.27986869	      7.23388390	    -10.65934240	      4.25801473	    -10.39622950	      4.23735909	      3.88030025	     52.90430569	    -11.81755161	      6.55703431	    123.41695381	     43.73645549	      0.00000000	      0.00000000	    -14.65287145	     -5.76190480	      3.63627382	     29.35646540	     45.23743096	      0.00000000	      0.00000000
